name Walk3.mot
datacolumns 19
datarows 27
range 3.26500000 3.39500000
endheader

                time	   L_ground_force_vx	   L_ground_force_vy	   L_ground_force_vz	   L_ground_force_px	   L_ground_force_py	   L_ground_force_pz	   R_ground_force_vx	   R_ground_force_vy	   R_ground_force_vz	   R_ground_force_px	   R_ground_force_py	   R_ground_force_pz	   L_ground_torque_x	   L_ground_torque_y	   L_ground_torque_z	   R_ground_torque_x	   R_ground_torque_y	   R_ground_torque_z	
          3.26500000	          0.00000000	          0.00000000	         -0.00000000	         -0.00000000	          0.00000000	         -0.00000000	          2.19235116	          8.35512486	          1.20099295	          0.12310323	          0.00000000	          0.04118558	          0.00000000	          0.00000000	          0.00000000	          0.00000000	         -0.85550061	          0.00000000	
          3.27000000	          0.00000000	          0.00000000	         -0.00000000	         -0.00000000	          0.00000000	         -0.00000000	          0.52864601	          0.71140682	          1.01540156	          0.08921166	          0.00000000	          0.02955470	          0.00000000	          0.00000000	          0.00000000	          0.00000000	         -0.43870721	          0.00000000	
          3.27500000	          0.00000000	          0.00000000	         -0.00000000	         -0.00000000	          0.00000000	         -0.00000000	         -0.58006537	         -4.24662516	          0.81607940	          0.06042208	          0.00000000	          0.01975862	          0.00000000	          0.00000000	          0.00000000	          0.00000000	         -0.13672923	          0.00000000	
          3.28000000	          0.00000000	          0.00000000	         -0.00000000	         -0.00000000	          0.00000000	         -0.00000000	         -1.24518435	         -7.09025831	          0.62371596	          0.03718123	          0.00000000	          0.01191391	          0.00000000	          0.00000000	          0.00000000	          0.00000000	          0.06773702	          0.00000000	
          3.28500000	          0.00000000	          0.00000000	         -0.00000000	         -0.00000000	          0.00000000	         -0.00000000	         -1.57323324	         -8.35307147	          0.45102861	          0.01933674	          0.00000000	          0.00594101	          0.00000000	         -0.00000000	          0.00000000	          0.00000000	          0.19350009	          0.00000000	
          3.29000000	          0.00000000	          0.00000000	         -0.00000000	         -0.00000000	          0.00000000	         -0.00000000	         -1.65918091	         -8.50226213	          0.30461665	          0.00636411	          0.00000000	          0.00164084	          0.00000000	         -0.00000000	          0.00000000	          0.00000000	          0.25884599	          0.00000000	
          3.29500000	         -0.00000000	         -0.00000000	         -0.00000000	         -0.00000000	          0.00000000	         -0.00000000	         -1.58307634	         -7.92550908	          0.18663401	         -0.00245831	          0.00000000	         -0.00124655	          0.00000000	         -0.00000000	          0.00000000	          0.00000000	          0.28027946	          0.00000000	
          3.30000000	         -0.00000000	         -0.00000000	         -0.00000000	         -0.00000000	          0.00000000	         -0.00000000	         -1.40906976	         -6.92883658	          0.09621353	         -0.00792154	          0.00000000	         -0.00299959	          0.00000000	         -0.00000000	          0.00000000	          0.00000000	          0.27185762	          0.00000000	
          3.30500000	         -0.00000000	         -0.00000000	         -0.00000000	         -0.00000000	          0.00000000	         -0.00000000	         -1.18604232	         -5.74170262	          0.03061930	         -0.01079850	          0.00000000	         -0.00388654	          0.00000000	         -0.00000000	          0.00000000	          0.00000000	          0.24495620	          0.00000000	
          3.31000000	         -0.00000000	         -0.00000000	         -0.00000000	         -0.00000000	          0.00000000	         -0.00000000	         -0.94921754	         -4.52631736	         -0.01386662	         -0.01178941	          0.00000000	         -0.00414795	          0.00000000	         -0.00000000	          0.00000000	          0.00000000	          0.20833177	          0.00000000	
          3.31500000	         -0.00000000	         -0.00000000	         -0.00000000	          0.00000000	          0.00000000	          0.00000000	         -0.72227477	         -3.38893736	         -0.04129790	         -0.01149246	          0.00000000	         -0.00398754	          0.00000000	         -0.00000000	          0.00000000	          0.00000000	          0.16836871	          0.00000000	
          3.32000000	         -0.00000000	         -0.00000000	         -0.00000000	          0.00000000	          0.00000000	          0.00000000	         -0.51961757	         -2.39153363	         -0.05562289	         -0.01039312	          0.00000000	         -0.00356930	          0.00000000	         -0.00000000	          0.00000000	          0.00000000	          0.12942524	          0.00000000	
          3.32500000	         -0.00000000	         -0.00000000	         -0.00000000	          0.00000000	          0.00000000	          0.00000000	         -0.34856196	         -1.56277654	         -0.06041012	         -0.00886616	          0.00000000	         -0.00301880	          0.00000000	         -0.00000000	          0.00000000	          0.00000000	          0.09421558	          0.00000000	
          3.33000000	         -0.00000000	         -0.00000000	          0.00000000	          0.00000000	          0.00000000	          0.00000000	         -0.21130028	         -0.90771395	         -0.05870237	         -0.00718575	          0.00000000	         -0.00242703	          0.00000000	         -0.00000000	          0.00000000	          0.00000000	          0.06418499	          0.00000000	
          3.33500000	         -0.00000000	         -0.00000000	          0.00000000	          0.00000000	          0.00000000	          0.00000000	         -0.10656572	         -0.41584580	         -0.05296458	         -0.00553982	          0.00000000	         -0.00185559	          0.00000000	         -0.00000000	          0.00000000	          0.00000000	          0.03985070	          0.00000000	
          3.34000000	         -0.00000000	         -0.00000000	          0.00000000	          0.00000000	          0.00000000	          0.00000000	         -0.03097342	         -0.06753191	         -0.04509619	         -0.00404619	          0.00000000	         -0.00134238	          0.00000000	         -0.00000000	          0.00000000	          0.00000000	          0.02109388	          0.00000000	
          3.34500000	         -0.00000000	         -0.00000000	          0.00000000	          0.00000000	          0.00000000	          0.00000000	          0.01995208	          0.16117599	         -0.03648377	         -0.00276835	          0.00000000	         -0.00090710	          0.00000000	         -0.00000000	          0.00000000	          0.00000000	          0.00739723	          0.00000000	
          3.35000000	         -0.00000000	         -0.00000000	          0.00000000	          0.00000000	          0.00000000	          0.00000000	          0.05103165	          0.29509487	         -0.02807538	         -0.00172995	          0.00000000	         -0.00055623	          0.00000000	         -0.00000000	          0.00000000	          0.00000000	         -0.00197120	          0.00000000	
          3.35500000	         -0.00000000	         -0.00000000	          0.00000000	          0.00000000	          0.00000000	          0.00000000	          0.06692639	          0.35763602	         -0.02046281	         -0.00092723	          0.00000000	         -0.00028723	          0.00000000	          0.00000000	          0.00000000	          0.00000000	         -0.00782310	          0.00000000	
          3.36000000	         -0.00000000	         -0.00000000	          0.00000000	          0.00000000	          0.00000000	          0.00000000	          0.07182631	          0.36945776	         -0.01396266	         -0.00033913	          0.00000000	         -0.00009201	          0.00000000	          0.00000000	          0.00000000	          0.00000000	         -0.01095709	          0.00000000	
          3.36500000	          0.00000000	          0.00000000	          0.00000000	          0.00000000	          0.00000000	          0.00000000	          0.06928794	          0.34781917	         -0.00868996	          0.00006483	          0.00000000	          0.00004046	          0.00000000	          0.00000000	          0.00000000	          0.00000000	         -0.01210029	          0.00000000	
          3.37000000	          0.00000000	          0.00000000	          0.00000000	          0.00000000	          0.00000000	          0.00000000	          0.06218030	          0.30643447	         -0.00462141	          0.00031876	          0.00000000	          0.00012221	          0.00000000	          0.00000000	          0.00000000	          0.00000000	         -0.01187641	          0.00000000	
          3.37500000	          0.00000000	          0.00000000	          0.00000000	          0.00000000	          0.00000000	          0.00000000	          0.05270459	          0.25566001	         -0.00164683	          0.00045638	          0.00000000	          0.00016497	          0.00000000	          0.00000000	          0.00000000	          0.00000000	         -0.01079356	          0.00000000	
          3.38000000	          0.00000000	          0.00000000	          0.00000000	          0.00000000	          0.00000000	          0.00000000	          0.04245971	          0.20287971	          0.00039096	          0.00050855	          0.00000000	          0.00017934	          0.00000000	          0.00000000	          0.00000000	          0.00000000	         -0.00924551	          0.00000000	
          3.38500000	          0.00000000	          0.00000000	          0.00000000	         -0.00000000	          0.00000000	         -0.00000000	          0.03253182	          0.15298739	          0.00166683	          0.00050178	          0.00000000	          0.00017438	          0.00000000	          0.00000000	          0.00000000	          0.00000000	         -0.00752157	          0.00000000	
          3.39000000	          0.00000000	          0.00000000	          0.00000000	         -0.00000000	          0.00000000	         -0.00000000	          0.02359238	          0.10889297	          0.00235319	          0.00045775	          0.00000000	          0.00015740	          0.00000000	          0.00000000	          0.00000000	          0.00000000	         -0.00582117	          0.00000000	
          3.39500000	          0.00000000	          0.00000000	          0.00000000	         -0.00000000	          0.00000000	         -0.00000000	          0.01599382	          0.07200395	          0.00260724	          0.00039332	          0.00000000	          0.00013407	          0.00000000	          0.00000000	          0.00000000	          0.00000000	         -0.00427036	          0.00000000	
